<svg width="639" height="108" viewBox="0 0 639 108" fill="none" xmlns="http://www.w3.org/2000/svg">
<path d="M24.3718 101.818C24.3712 105.227 21.5586 108.07 18.2529 107.217C7.75262 104.505 -0.00191191 94.9804 3.53595e-07 83.6488C0.00191262 72.3172 7.75966 62.7958 18.2608 60.0875C21.5669 59.2349 24.3785 62.0793 24.3779 65.4886L24.3718 101.818Z" fill="#FF7A30"/>
<path d="M34.624 59.3174C31.2095 59.3168 28.441 62.08 28.4404 65.4893L28.4343 101.818C28.4337 105.228 31.2013 107.992 34.6158 107.992L45.0069 107.994C48.4189 107.995 51.1864 105.235 51.1905 101.829L51.2414 59.3203L34.624 59.3174Z" fill="#FF7A30"/>
<path d="M100 6.18056C100.001 2.77127 100 0 100 0C83 0 71.5 2.14532 63.3607 6.86527C55.3489 11.5113 51.1905 19.0005 51.1905 29.5005L51.2414 59.3203L93.8086 59.3278C97.2232 59.3284 99.9917 56.5651 99.9922 53.1558L100 6.18056Z" fill="#FF7A30"/>
<path d="M98.3153 63.3848C74.5327 63.3807 55.2498 82.6274 55.2458 106.374C55.2457 107.279 55.9938 107.996 56.9011 107.996L77.1829 108C89.7473 108.002 99.9345 97.8341 99.9366 85.2889L99.9401 65.0381C99.9402 64.1322 99.2226 63.385 98.3153 63.3848Z" fill="#FF7A30"/>
<path d="M170.45 107.7C156.45 107.7 145.35 105.3 137.15 100.5C129.05 95.7005 125 89.0505 125 80.5505C125 76.8505 126.4 73.8505 129.2 71.5505C132 69.2505 136.7 68.1005 143.3 68.1005C143.7 75.4005 146.2 80.9505 150.8 84.7505C155.5 88.4505 162.05 90.3005 170.45 90.3005C176.95 90.3005 182.05 89.2005 185.75 87.0005C189.45 84.7005 191.3 81.5505 191.3 77.5505C191.3 74.8505 190.6 72.6505 189.2 70.9505C187.8 69.2505 185.35 67.7005 181.85 66.3005C178.45 64.9005 173.45 63.4505 166.85 61.9505C156.85 59.6505 149 57.0505 143.3 54.1505C137.6 51.2505 133.45 47.8005 130.85 43.8005C128.35 39.8005 127.1 34.8005 127.1 28.8005C127.1 23.1005 128.8 18.1005 132.2 13.8005C135.7 9.40049 140.55 6.00049 146.75 3.60049C152.95 1.20049 160.15 0.000488281 168.35 0.000488281C176.15 0.000488281 183.15 1.05049 189.35 3.15049C195.55 5.15049 200.4 8.00049 203.9 11.7005C207.4 15.4005 209.15 19.6505 209.15 24.4505C209.15 28.1505 207.75 31.1005 204.95 33.3005C202.25 35.4005 197.75 36.5505 191.45 36.7505C190.95 30.0505 188.9 25.1505 185.3 22.0505C181.7 18.9505 176.05 17.4005 168.35 17.4005C162.05 17.4005 157.2 18.4005 153.8 20.4005C150.4 22.4005 148.7 25.3005 148.7 29.1005C148.7 31.7005 149.35 33.8505 150.65 35.5505C151.95 37.1505 154.15 38.6005 157.25 39.9005C160.45 41.2005 165 42.5005 170.9 43.8005C181.2 46.1005 189.35 48.7505 195.35 51.7505C201.45 54.6505 205.85 58.1505 208.55 62.2505C211.35 66.3505 212.75 71.4005 212.75 77.4005C212.75 83.5005 211 88.8505 207.5 93.4505C204.1 98.0505 199.2 101.6 192.8 104.1C186.5 106.5 179.05 107.7 170.45 107.7Z" fill="#FFFFFF"/>
<path d="M246.703 107.7C238.203 107.7 231.953 105.25 227.953 100.35C223.953 95.4505 221.953 89.1505 221.953 81.4505V46.5005H206.053C206.053 41.4005 207.003 37.6005 208.903 35.1005C210.803 32.6005 213.303 31.3505 216.403 31.3505H222.253V19.5005C222.253 15.2005 223.903 12.1505 227.203 10.3505C230.503 8.45049 235.503 7.50049 242.203 7.50049V31.3505H262.153C262.153 36.7505 261.153 40.6505 259.153 43.0505C257.153 45.3505 253.853 46.5005 249.253 46.5005H242.503V80.7005C242.503 84.0005 243.153 86.4005 244.453 87.9005C245.753 89.3005 248.003 90.0005 251.203 90.0005C254.703 90.0005 258.303 89.0005 262.003 87.0005C263.103 88.0005 263.953 89.2505 264.553 90.7505C265.253 92.2505 265.603 93.7505 265.603 95.2505C265.603 97.2505 264.903 99.2005 263.503 101.1C262.103 103 259.953 104.6 257.053 105.9C254.253 107.1 250.803 107.7 246.703 107.7Z" fill="#FFFFFF"/>
<path d="M336.522 92.1005C336.522 97.1005 334.872 100.95 331.572 103.65C328.272 106.35 323.372 107.7 316.872 107.7V98.8505C318.372 97.2505 319.622 95.5505 320.622 93.7505L319.572 93.1505C313.272 102.85 304.772 107.7 294.072 107.7C289.072 107.7 284.522 106.55 280.422 104.25C276.322 101.85 273.072 98.5505 270.672 94.3505C268.372 90.0505 267.222 85.2005 267.222 79.8005V42.0005C267.222 37.7005 268.872 34.6505 272.172 32.8505C275.572 30.9505 280.772 30.0005 287.772 30.0005V78.3005C287.772 81.9005 288.872 84.7505 291.072 86.8505C293.272 88.9505 296.472 90.0005 300.672 90.0005C305.472 90.0005 309.222 88.5005 311.922 85.5005C314.622 82.4005 315.972 78.4505 315.972 73.6505V42.0005C315.972 37.7005 317.622 34.6505 320.922 32.8505C324.322 30.9505 329.522 30.0005 336.522 30.0005V92.1005Z" fill="#FFFFFF"/>
<path d="M370.194 107.7C364.894 107.7 360.094 106.55 355.794 104.25C351.494 101.85 348.094 98.6005 345.594 94.5005C343.094 90.3005 341.844 85.6005 341.844 80.4005V57.3005C341.844 52.1005 343.144 47.4505 345.744 43.3505C348.444 39.1505 352.144 35.9005 356.844 33.6005C361.544 31.2005 366.744 30.0005 372.444 30.0005C375.844 30.0005 379.494 30.7005 383.394 32.1005C387.394 33.5005 390.694 35.4505 393.294 37.9505L393.894 37.2005C393.394 36.4005 392.294 35.4005 390.594 34.2005V13.5005C390.594 9.30049 392.294 6.00049 395.694 3.60049C399.194 1.20049 404.444 0.000488281 411.444 0.000488281V94.0505C411.444 97.9505 409.894 101.2 406.794 103.8C403.694 106.4 398.944 107.7 392.544 107.7V99.6005C393.744 98.1005 394.694 96.7505 395.394 95.5505L394.644 94.9505C391.444 99.2505 387.994 102.45 384.294 104.55C380.694 106.65 375.994 107.7 370.194 107.7ZM376.644 90.0005C380.844 90.0005 384.244 89.0505 386.844 87.1505C389.544 85.1505 390.894 82.6505 390.894 79.6505V58.0505C390.894 55.1505 389.544 52.7005 386.844 50.7005C384.244 48.7005 380.844 47.7005 376.644 47.7005C372.044 47.7005 368.494 48.6505 365.994 50.5505C363.594 52.4505 362.394 55.1505 362.394 58.6505V78.9005C362.394 82.5005 363.594 85.2505 365.994 87.1505C368.494 89.0505 372.044 90.0005 376.644 90.0005Z" fill="#FFFFFF"/>
<path d="M420.494 42.0005C420.494 37.7005 422.194 34.6505 425.594 32.8505C428.994 30.9505 434.144 30.0005 441.044 30.0005V95.7005C441.044 100 439.344 103.1 435.944 105C432.544 106.8 427.394 107.7 420.494 107.7V42.0005Z" fill="#FFFFFF"/>
<path d="M459.507 107.7C456.107 107.7 453.207 106.6 450.807 104.4C448.407 102.1 447.207 99.2005 447.207 95.7005C447.207 92.2005 448.407 89.3005 450.807 87.0005C453.207 84.7005 456.107 83.5505 459.507 83.5505C462.907 83.5505 465.807 84.7005 468.207 87.0005C470.707 89.3005 471.957 92.2005 471.957 95.7005C471.957 99.2005 470.707 102.1 468.207 104.4C465.807 106.6 462.907 107.7 459.507 107.7Z" fill="#FF7A30"/>
<path d="M517.16 107.7C509.26 107.7 502.01 106.15 495.41 103.05C488.91 99.9505 483.76 95.7505 479.96 90.4505C476.16 85.1505 474.26 79.2505 474.26 72.7505V65.1006C474.26 58.6006 476.16 52.7006 479.96 47.4006C483.76 42.1006 488.91 37.9006 495.41 34.8006C502.01 31.7006 509.26 30.1506 517.16 30.1506C525.06 30.1506 532.26 31.7006 538.76 34.8006C545.36 37.9006 550.56 42.1006 554.36 47.4006C558.16 52.7006 560.06 58.6006 560.06 65.1006V72.7505C560.06 79.2505 558.16 85.1505 554.36 90.4505C550.56 95.7505 545.36 99.9505 538.76 103.05C532.26 106.15 525.06 107.7 517.16 107.7ZM517.16 88.5005C523.56 88.5005 528.61 87.0505 532.31 84.1505C536.11 81.1505 538.01 77.1005 538.01 72.0005V65.8506C538.01 60.7506 536.11 56.7506 532.31 53.8506C528.61 50.8506 523.56 49.3506 517.16 49.3506C510.76 49.3506 505.66 50.8506 501.86 53.8506C498.16 56.7506 496.31 60.7506 496.31 65.8506V72.0005C496.31 77.1005 498.16 81.1505 501.86 84.1505C505.66 87.0505 510.76 88.5005 517.16 88.5005Z" fill="#FFFFFF"/>
<path d="M573.991 107.7C571.891 107.7 569.741 107.35 567.541 106.65C565.341 106.05 563.591 105.05 562.291 103.65L588.391 67.8005L564.541 33.0005C565.341 32.1005 566.891 31.4005 569.191 30.9005C571.491 30.3005 573.541 30.0005 575.341 30.0005C581.141 30.0005 585.041 31.6005 587.041 34.8005L599.341 54.6005L596.191 58.9505L597.391 59.8505L613.591 34.8005C615.691 31.6005 619.841 30.0005 626.041 30.0005C627.841 30.0005 629.741 30.3005 631.741 30.9005C633.841 31.4005 635.291 32.1005 636.091 33.0005L612.091 67.8005L638.341 103.65C637.041 105.05 635.391 106.05 633.391 106.65C631.391 107.35 629.391 107.7 627.391 107.7C625.191 107.7 622.991 107.3 620.791 106.5C618.691 105.7 617.191 104.7 616.291 103.5L600.241 79.6505L584.341 103.5C583.441 104.8 582.041 105.8 580.141 106.5C578.241 107.3 576.191 107.7 573.991 107.7Z" fill="#FFFFFF"/>
</svg>


